<?xml version="1.0" standalone="no"?>
<!DOCTYPE svg PUBLIC "-//W3C//DTD SVG 20010904//EN"
 "http://www.w3.org/TR/2001/REC-SVG-20010904/DTD/svg10.dtd">
<svg version="1.0" xmlns="http://www.w3.org/2000/svg"
 width="2256.000000pt" height="2241.000000pt" viewBox="0 0 2256.000000 2241.000000"
 preserveAspectRatio="xMidYMid meet">

<g transform="translate(0.000000,2241.000000) scale(0.100000,-0.100000)"
fill="#000000" stroke="none">
<path d="M10465 22403 c-257 -5 -985 -43 -1385 -73 -2404 -182 -4848 -665
-7214 -1426 -934 -301 -1811 -638 -1860 -717 -8 -13 -6 -33 12 -85 64 -185
385 -872 492 -1051 22 -36 53 -81 70 -99 l30 -32 413 159 c1173 453 1838 684
2652 922 1576 460 3211 769 4890 923 930 86 1307 100 2715 100 1427 0 1780
-13 2715 -100 2342 -217 4594 -733 6760 -1549 259 -97 556 -211 660 -252 229
-90 430 -159 490 -169 33 -4 51 -2 68 9 73 47 587 1096 587 1196 0 21 -31 50
-90 84 -154 88 -1030 414 -1709 636 -2712 886 -5682 1419 -8446 1516 -362 13
-1355 17 -1850 8z"/>
<path d="M8495 20200 c-1700 -120 -3788 -532 -5410 -1067 -732 -241 -2004
-748 -2063 -822 -19 -24 -6 -87 30 -140 130 -191 387 -482 619 -702 297 -280
722 -609 1029 -795 332 -200 1002 -556 1198 -635 72 -29 84 -31 97 -19 8 9 20
63 29 128 34 246 147 530 283 713 257 347 789 586 1563 704 382 57 1237 113
1810 117 184 2 349 -1 365 -5 l31 -8 262 -1432 c144 -788 550 -3034 901 -4992
1524 -8480 2026 -11245 2041 -11245 12 0 546 2956 1609 8905 998 5583 1573
8771 1586 8783 14 14 315 11 675 -7 665 -34 1386 -95 1675 -141 412 -66 839
-215 1085 -380 122 -81 264 -220 349 -340 115 -162 168 -297 266 -683 10 -37
25 -78 35 -89 16 -21 20 -21 61 -9 187 55 815 383 1240 647 653 406 1279 970
1663 1497 43 59 77 110 75 112 -7 6 -287 130 -529 233 -966 413 -2250 829
-3430 1112 -445 107 -860 191 -1325 270 -231 39 -458 78 -505 86 -133 23
-1054 143 -1265 164 -446 47 -842 62 -931 37 -39 -11 -81 -59 -636 -732 -1191
-1444 -1681 -2027 -1700 -2022 -28 7 -544 621 -1646 1957 -615 745 -667 806
-701 812 -54 10 -160 7 -436 -12z"/>
</g>
</svg>
